<?xml version="1.0" encoding="UTF-8" standalone="no"?>
<!-- Created with Inkscape (http://www.inkscape.org/) -->

<svg
   width="210mm"
   height="297mm"
   viewBox="0 0 210 297"
   version="1.1"
   id="svg1"
   inkscape:version="1.3.2 (091e20e, 2023-11-25, custom)"
   sodipodi:docname="Solprot.svg"
   xmlns:inkscape="http://www.inkscape.org/namespaces/inkscape"
   xmlns:sodipodi="http://sodipodi.sourceforge.net/DTD/sodipodi-0.dtd"
   xmlns="http://www.w3.org/2000/svg"
   xmlns:svg="http://www.w3.org/2000/svg"
   xmlns:rdf="http://www.w3.org/1999/02/22-rdf-syntax-ns#"
   xmlns:cc="http://creativecommons.org/ns#"
   xmlns:dc="http://purl.org/dc/elements/1.1/">
  <title
     id="title3">Cristhian Solprot</title>
  <sodipodi:namedview
     id="namedview1"
     pagecolor="#ffffff"
     bordercolor="#999999"
     borderopacity="1"
     inkscape:showpageshadow="2"
     inkscape:pageopacity="0"
     inkscape:pagecheckerboard="0"
     inkscape:deskcolor="#d1d1d1"
     inkscape:document-units="mm"
     inkscape:zoom="0.48907828"
     inkscape:cx="397.68685"
     inkscape:cy="561.25984"
     inkscape:window-width="1366"
     inkscape:window-height="745"
     inkscape:window-x="-8"
     inkscape:window-y="-8"
     inkscape:window-maximized="1"
     inkscape:current-layer="layer1" />
  <defs
     id="defs1" />
  <g
     inkscape:label="Layer 1"
     inkscape:groupmode="layer"
     id="layer1">
    <path
       style="fill:#f52f4d;stroke-width:0.264583;fill-opacity:1"
       d="m 31.377048,76.819672 c 0,0 53.557376,-56.803279 55.72131,-29.213114 C 89.262293,75.19672 10.819672,179.60655 53.016393,201.2459 95.213113,222.88524 135.78688,164.45901 114.68852,190.96721 93.590162,217.47541 28.131148,284.01639 12.442623,232.62295 -3.2459017,181.22951 95.213113,55.180327 68.163934,68.163934 41.114755,81.147541 31.377048,76.819672 31.377048,76.819672 Z"
       id="path1" />
    <path
       style="fill:#3119f5;stroke-width:0.264583;fill-opacity:1"
       d="m 146.06557,44.360655 c 0,0 50.31148,172.032785 38.40984,189.885245 -11.90164,17.85246 -31.37705,-96.83607 -49.77049,-81.14754 -18.39345,15.68852 -68.704921,43.81967 -63.836069,13.52459 4.868852,-30.29508 41.655739,-176.901639 75.196719,-122.262295 z"
       id="path2" />
    <path
       style="fill:#f52f4d;fill-opacity:1;stroke-width:0.216355"
       d="m 128.22478,78.98189 c 0,0 22.09948,46.33035 7.36649,55.25638 -14.73298,8.92604 -34.53043,22.52761 -31.768,12.75148 2.76245,-9.77614 17.03502,-82.884579 24.40151,-68.00786 z"
       id="path3" />
  </g>
  <metadata
     id="metadata3">
    <rdf:RDF>
      <cc:Work
         rdf:about="">
        <dc:title>Cristhian Solprot</dc:title>
      </cc:Work>
    </rdf:RDF>
  </metadata>
</svg>
